<?xml version="1.0" encoding="UTF-8"?>
<svg xmlns="http://www.w3.org/2000/svg" width="390" height="390" role="img" aria-label="HLabMonitor logo">
  <defs>
    <linearGradient id="hexGrad" x1="0" y1="0" x2="1" y2="1">
      <stop offset="0%" stop-color="#22D3EE"/>
      <stop offset="100%" stop-color="#B8A6"/>
    </linearGradient>
  </defs>
  <g transform="translate(15,15)">
    <path transform="scale(3,3)"
          d="M 0 35.35
             L 35.35 0
             L 85.35 0
             L 120.7 35.35
             L 120.7 85.35
             L 85.35 120.7
             L 35.35 120.7
             L 0 85.35 Z"
          fill="none" stroke="url(#hexGrad)" stroke-width="6" stroke-linejoin="round"/>

    <g transform="translate(60,70) scale(3,3)" fill="none" stroke="#000000" stroke-width="3" stroke-linecap="round" stroke-linejoin="round" opacity="0.92">
      <path d="M 5 22.55
               L 15.45 00.00
               L 65.45 00.00
               L 75.90 22.55"/>

      <path d="M 75.90 47.55
               L 40.45 76.94
               L 5 47.55"/>

      <circle cx="14.25" cy="1.25" r="5" fill="#000000"/>
      <circle cx="64.25" cy="1.25" r="5" fill="#000000"/>
      <circle cx="40.45" cy="74.44" r="5" fill="#000000"/>
    </g>

    <path transform="scale(2,2) translate(20,30)"
          d="M 00 60.35
             L 50 60.35
             L 60 15.35
             L 70 85.35
             L 80 35.35
             L 90 60.35
             L 140 60.35"
          fill="none" stroke="#14B8A6" stroke-width="4" stroke-linecap="round" stroke-linejoin="round"/>
  </g>
</svg>
